<?xml version="1.0" encoding="UTF-8"?>
<svg width="16" height="16" version="1.1" viewBox="0 0 16 16" xml:space="preserve" xmlns="http://www.w3.org/2000/svg"><path transform="matrix(1.0194 0 0 1.0194 -.20931 -.0081409)" d="m3.7072 1.5913c2.4832 0.84272 6.998 2.8193 9.4031 4.0618s2.7007 1.751 2.6921 2.2515c-0.0086 0.50044-0.32149 0.99276-2.7287 2.1921-2.4072 1.1994-6.9088 3.1058-9.3736 3.9624-2.4648 0.85658-2.8927 0.66334-3.1332 0.28966-0.24041-0.37368-0.29323-0.92774 0.057372-1.8055 0.3506-0.87779 1.1046-2.0793 1.8586-3.2808 0.083697-0.13019 0.16739-0.26039 0.27899-0.34409 0.1116-0.083697 0.25109-0.12089 0.39058-0.15809 1.739-0.22319 3.4781-0.44638 5.2171-0.66957 0.074397-0.060448 0.14879-0.1209 0.14879-0.18832-8e-7 -0.067423-0.074396-0.14182-0.14879-0.21622-1.7716-0.24179-3.5432-0.48358-5.3147-0.72537-0.074397-0.013949-0.14879-0.027899-0.21854-0.067423-0.069748-0.039524-0.13484-0.10462-0.19994-0.16972-0.83716-1.3393-1.6743-2.6787-2.0603-3.5775-0.38594-0.89881-0.32066-1.3571-0.062217-1.7318s0.71004-0.66579 3.1932 0.17693z" fill="#fff" stroke-linecap="round" stroke-linejoin="round" stroke-width="15" style="paint-order:markers stroke fill"/></svg>
